Coordinates
version=1
nRows=6
nColumns=63
inDegrees=yes

Units are S.I. units (second, meters, Newtons, ...)
If the header above contains a line with 'inDegrees', this indicates whether rotational values are in degrees (yes) or radians (no).

endheader
time	pelvis_tilt	pelvis_list	pelvis_rotation	pelvis_tx	pelvis_ty	pelvis_tz	hip_flexion_r	hip_adduction_r	hip_rotation_r	knee_angle_r	knee_angle_r_beta	ankle_angle_r	subtalar_angle_r	mtp_angle_r	hip_flexion_l	hip_adduction_l	hip_rotation_l	knee_angle_l	knee_angle_l_beta	ankle_angle_l	subtalar_angle_l	mtp_angle_l	L5_S1_Flex_Ext	L5_S1_Lat_Bending	L5_S1_axial_rotation	L4_L5_Flex_Ext	L4_L5_Lat_Bending	L4_L5_axial_rotation	L3_L4_Flex_Ext	L3_L4_Lat_Bending	L3_L4_axial_rotation	L2_L3_Flex_Ext	L2_L3_Lat_Bending	L2_L3_axial_rotation	L1_L2_Flex_Ext	L1_L2_Lat_Bending	L1_L2_axial_rotation	L1_T12_Flex_Ext	L1_T12_Lat_Bending	L1_T12_axial_rotation	Abs_r3	Abs_r2	Abs_r1	Abs_t1	Abs_t2	neck_flexion	neck_bending	neck_rotation	arm_flex_r	arm_add_r	arm_rot_r	elbow_flex_r	pro_sup_r	wrist_flex_r	wrist_dev_r	arm_flex_l	arm_add_l	arm_rot_l	elbow_flex_l	pro_sup_l	wrist_flex_l	wrist_dev_l
      4.26530612	     -2.30370771	     -2.11122035	     99.90158811	      0.21258012	      0.74781727	      0.56715226	     -9.51805358	     -0.14659486	      3.69160052	      0.76151676	      0.01329097	     26.94171110	    -10.34578078	      0.00000000	     -6.87487240	      1.22761055	     18.22380507	      0.96730801	      0.01688271	     23.65490982	    -14.64534487	      0.00000000	     -0.18532989	      0.17330338	     -1.65658223	     -0.34417613	      0.23049350	     -1.76011862	     -0.30447847	      0.42136985	     -1.76011862	     -0.21181353	      0.42136985	     -1.44950945	     -0.17209733	      0.35340026	     -1.34597306	     -0.10589750	      0.26844694	     -1.24243667	     -1.32379285	      1.96044254	     -9.21341338	      0.00000000	      0.00000000	     18.27671095	     -5.59191303	     11.70588318	      4.80891101	    -14.94340511	    123.90407037	     13.46614880	      9.23471407	     -3.21087142	     -6.10933910	     -2.87475814	    -13.09535078	     99.27542917	     12.79221709	     15.35898610	     -1.62707226	     -8.81392547
      4.28571429	     -2.48240748	     -1.79594747	     99.63274392	      0.21298797	      0.74821968	      0.56688518	     -9.93331004	     -0.30051124	      5.00013084	      0.69057351	      0.01205278	     26.26779918	    -12.01194783	      0.00000000	     -7.20874345	      1.39904522	     17.84793408	      1.09488248	      0.01910930	     23.64446257	    -14.54282954	      0.00000000	     -0.20675876	      0.14784450	     -1.73849980	     -0.38397169	      0.19663318	     -1.84715603	     -0.33968397	      0.35946912	     -1.84715603	     -0.23630459	      0.35946912	     -1.52118732	     -0.19199618	      0.30148450	     -1.41253108	     -0.11814195	      0.22901113	     -1.30387485	     -1.47685714	      1.67244655	     -9.66901432	      0.00000000	      0.00000000	     17.60996967	     -5.24602320	     12.11073095	      5.76761195	    -14.39856936	    131.24842934	     13.14669004	      5.95302636	     -3.31795556	     -6.62564305	     -2.63114262	    -13.00374150	    103.36337388	     12.50164723	     13.22102606	     -1.73030826	     -8.91677589
      4.30612245	     -2.70304079	     -1.57440816	     99.17118890	      0.21350793	      0.74842549	      0.56667461	    -10.20756420	     -0.56514803	      5.52814773	      0.74303590	      0.01296842	     25.86999391	    -12.35841378	      0.00000000	     -7.48324155	      1.66367457	     17.72563927	      1.14894087	      0.02005280	     23.43460876	    -15.00456279	      0.00000000	     -0.22239753	      0.12438813	     -1.78346518	     -0.41301445	      0.16543622	     -1.89493176	     -0.36537690	      0.30243731	     -1.89493176	     -0.25417813	      0.30243731	     -1.56053203	     -0.20651834	      0.25365228	     -1.44906546	     -0.12707795	      0.19267722	     -1.33759889	     -1.58856330	      1.40710345	     -9.91909830	      0.00000000	      0.00000000	     17.18644682	     -5.02499128	     12.69300408	      6.29573383	    -14.30879837	    132.18755050	     13.31666852	      7.14391990	     -3.75224903	     -6.43790163	     -2.83466240	    -13.03247296	    102.31079958	     12.44506674	     14.56347601	     -1.65647932	     -8.50808759
      4.32653061	     -2.85594371	     -1.42274854	     98.54619324	      0.21424826	      0.74854356	      0.56666438	    -10.36663307	     -0.79322854	      6.16214547	      0.80553812	      0.01405929	     25.39266022	    -12.71564823	      0.00000000	     -7.63428585	      1.90685960	     16.92744247	      1.26366007	      0.02205503	     23.50544088	    -14.84856983	      0.00000000	     -0.23853000	      0.11176197	     -1.79408223	     -0.44297407	      0.14864341	     -1.90621237	     -0.39188094	      0.27173804	     -1.90621237	     -0.27261594	      0.27173804	     -1.56982195	     -0.22149896	      0.22790500	     -1.45769181	     -0.13629604	      0.17311928	     -1.34556167	     -1.70379595	      1.26427371	     -9.97814713	      0.00000000	      0.00000000	     16.98914101	     -4.92803516	     13.23848659	      6.82857436	    -14.08271085	    134.91048913	     13.22616597	      6.08230687	     -3.66287024	     -6.41923168	     -2.66467067	    -12.77316626	    105.77133051	     11.78871744	     12.38675973	     -0.79962495	     -8.48596876
      4.34693878	     -2.98646807	     -1.32904008	     97.98500341	      0.21485234	      0.74848051	      0.56670747	    -10.44485628	     -0.99847305	      6.69188367	      0.89116703	      0.01555380	     24.94092164	    -13.02233488	      0.00000000	     -7.69926302	      2.12788854	     15.93600155	      1.42514766	      0.02487352	     23.79202279	    -14.22361376	      0.00000000	     -0.25683179	      0.10409023	     -1.78833175	     -0.47696232	      0.13844001	     -1.90010248	     -0.42194895	      0.25308499	     -1.90010248	     -0.29353305	      0.25308499	     -1.56479028	     -0.23849400	      0.21226080	     -1.45301954	     -0.14675369	      0.16123577	     -1.34124881	     -1.83452380	      1.17748951	     -9.94616467	      0.00000000	      0.00000000	     17.11090147	     -5.01729801	     13.63626498	      7.25418222	    -13.98078207	    136.59646564	     13.31167399	      5.38473486	     -3.63794708	     -6.33262530	     -2.76302680	    -12.77580180	    104.34343420	     11.78387536	     14.40938209	     -0.96295334	     -8.16357201
      4.36734694	     -3.09114169	     -1.29539843	     97.57292700	      0.21527026	      0.74819334	      0.56684375	    -10.45084159	     -1.16726326	      6.65923228	      0.98265298	      0.01715053	     24.79123429	    -12.60725883	      0.00000000	     -7.74249120	      2.30560072	     15.80641367	      1.47397298	      0.02572568	     23.76632333	    -14.62241204	      0.00000000	     -0.27443868	      0.09819191	     -1.77960187	     -0.50966008	      0.13059524	     -1.89082699	     -0.45087531	      0.23874381	     -1.89082699	     -0.31365597	      0.23874381	     -1.55715164	     -0.25484376	      0.20023294	     -1.44592652	     -0.15681426	      0.15209927	     -1.33470140	     -1.96028807	      1.11076650	     -9.89761172	      0.00000000	      0.00000000	     17.44927211	     -5.14341414	     13.73975876	      7.38437266	    -14.10120875	    135.32070508	     13.49001086	      6.09504941	     -3.49474980	     -6.04258902	     -2.52226664	    -12.48705976	    108.43134727	     11.25050225	     10.94949030	     -0.55265130	     -8.15653446
